<?xml version="1.0" encoding="utf-8"?>
<!-- Generator: Adobe Illustrator 25.4.1, SVG Export Plug-In . SVG Version: 6.00 Build 0)  -->
<svg version="1.1" id="Layer_1" xmlns="http://www.w3.org/2000/svg" xmlns:xlink="http://www.w3.org/1999/xlink" x="0px" y="0px"
	 viewBox="0 0 432 432" style="enable-background:new 0 0 432 432;" xml:space="preserve">
<style type="text/css">
	
		.st0{clip-path:url(#SVGID_00000054976813410337783370000007355749771357299881_);fill:url(#SVGID_00000039822633295516531680000005327821410674683823_);}
	
		.st1{clip-path:url(#SVGID_00000039834974009595176950000017533800784529027497_);fill:url(#SVGID_00000046310815584254889510000007547342579203865991_);}
	.st2{fill:#FFFFFF;}
</style>
<g>
	<g>
		<g>
			<g>
				<defs>
					<path id="SVGID_1_" d="M0,216c0,119.29,96.71,216,216,216s216-96.71,216-216S335.29,0,216,0S0,96.71,0,216"/>
				</defs>
				<clipPath id="SVGID_00000011740914652964966580000003098653234995003012_">
					<use xlink:href="#SVGID_1_"  style="overflow:visible;"/>
				</clipPath>
				
					<linearGradient id="SVGID_00000044138206979064358100000013041800908105226687_" gradientUnits="userSpaceOnUse" x1="-464.2208" y1="197.8643" x2="-462.9562" y2="197.8643" gradientTransform="matrix(170.8554 295.9302 -295.9302 170.8554 137976.6094 103599.6484)">
					<stop  offset="0" style="stop-color:#4EADE2"/>
					<stop  offset="3.591710e-04" style="stop-color:#4EADE2"/>
					<stop  offset="0.4327" style="stop-color:#428FC9"/>
					<stop  offset="0.7987" style="stop-color:#3A7CBA"/>
					<stop  offset="0.9999" style="stop-color:#3675B4"/>
					<stop  offset="1" style="stop-color:#3675B4"/>
				</linearGradient>
				
					<polygon style="clip-path:url(#SVGID_00000011740914652964966580000003098653234995003012_);fill:url(#SVGID_00000044138206979064358100000013041800908105226687_);" points="
					324,-187.06 619.06,324 108,619.06 -187.06,108 				"/>
			</g>
		</g>
		<g>
			<g>
				<defs>
					<path id="SVGID_00000165195352346476771610000005795288180547082128_" d="M26.2,216c0,104.82,84.98,189.8,189.8,189.8
						S405.8,320.82,405.8,216S320.82,26.2,216,26.2S26.2,111.18,26.2,216"/>
				</defs>
				<clipPath id="SVGID_00000034062549489373022830000010189183111020856487_">
					<use xlink:href="#SVGID_00000165195352346476771610000005795288180547082128_"  style="overflow:visible;"/>
				</clipPath>
				
					<linearGradient id="SVGID_00000174569625869679511920000015866410185602623619_" gradientUnits="userSpaceOnUse" x1="-463.9604" y1="197.8419" x2="-462.696" y2="197.8419" gradientTransform="matrix(150.1302 260.0331 -260.0331 150.1302 121221.0156 90994.625)">
					<stop  offset="0" style="stop-color:#2961A0"/>
					<stop  offset="1.269470e-03" style="stop-color:#2961A0"/>
					<stop  offset="0.2405" style="stop-color:#275993"/>
					<stop  offset="0.6605" style="stop-color:#204576"/>
					<stop  offset="0.999" style="stop-color:#1A325D"/>
					<stop  offset="1" style="stop-color:#1A325D"/>
				</linearGradient>
				
					<polygon style="clip-path:url(#SVGID_00000034062549489373022830000010189183111020856487_);fill:url(#SVGID_00000174569625869679511920000015866410185602623619_);" points="
					310.9,-138.17 570.17,310.9 121.1,570.17 -138.17,121.1 				"/>
			</g>
		</g>
		<g>
			<path class="st2" d="M343.56,218.19c6.11,0.03,10.81,5.32,10.27,11.41c-0.43,4.9-1.12,9.73-2.04,14.48
				C339.18,308.6,282,357.23,213.92,356.75c-10.03-0.07-19.96-1.2-29.65-3.38c-5.55-1.24-9.44-7.02-8.7-12.65
				c0.85-6.46,6.75-10.55,13.11-9.1c10.23,2.33,20.79,3.29,31.44,2.83c52.51-2.27,103.5-48.26,110.88-100.29
				c0.3-2.12,0.54-4.25,0.73-6.37c0.48-5.42,4.92-9.62,10.37-9.6L343.56,218.19z"/>
			<path class="st2" d="M125.81,246.91c-10.83,0-14.21-6.94-16.24-18.78l-10.15-51.94c-1.86-9.47,2.71-16.92,12.01-16.92
				c7.44,0,9.81,4.23,10.66,9.98l7.44,49.91h0.34l15.06-41.96c4.91-13.7,8.8-17.93,17.93-17.93h0.84
				c8.63,0.51,12.52,4.57,14.55,17.76l6.6,42.12h0.17l17.26-49.91c1.86-5.24,4.74-9.98,11.84-9.98c9.98,0,13.71,7.44,9.81,16.92
				l-20.98,51.94c-4.91,11-9.81,18.61-19.96,18.78h-0.51c-11,0-14.04-6.94-16.07-18.78l-5.92-39.25h-0.34l-14.04,39.25
				c-4.23,10.32-9.13,18.78-19.79,18.78L125.81,246.91L125.81,246.91z"/>
			<path class="st2" d="M307.18,129.51c0,6.6-5.08,10.83-10.49,10.83c-5.75,0-6.26-2.88-11.51-2.88c-5.24,0-8.96,4.23-9.64,11.17
				l-1.18,11.84h10.32c5.92,0,10.83,3.05,9.98,10.49c-0.68,7.44-6.26,10.66-12.18,10.66h-10.32l-9.13,87.29
				c-0.68,6.77-5.08,13.03-13.53,13.03c-8.29,0-11.33-6.26-10.66-13.03l9.13-87.29h-3.04c-5.92,0-10.83-3.21-10.15-10.66
				c0.85-7.44,6.43-10.49,12.35-10.49h3.04l1.35-12.86c1.86-16.92,11.84-32.31,34.85-32.31c6.94,0,13.2,1.52,17.09,5.07
				C305.83,122.57,307.18,125.62,307.18,129.51"/>
		</g>
	</g>
</g>
</svg>
